<svg xmlns="http://www.w3.org/2000/svg" width="280" height="280" fill="none"><path fill="#DEE9FF" d="M101.791 242.485c14.857 8.955 25.456 5.238 29.513-1.943 7.847-13.887 33.938-42.284 75.283-51.882 54.761-12.712 43.325-46.464 9.661-64.176-33.663-17.711-58.834-42.219-55.024-68.866 3.81-26.648-33.936-35.834-50.722 15.427-10.847 33.126-30.287 42.001-42.683 44.134-11.683 2.011-24.463 4.534-30.695 14.618-7.562 12.236-4.924 24.614 26.738 33.103 44.867 12.03 4.63 59.513 37.929 79.585"/><path fill="#0E84E5" d="M63.19 184.424c.63-.36 7.726-3.364 43.029 13.094-.103.14-.147.206-.147.206s-36.7 12.36-43.892-2.866c-2.147-4.533-1.532-7.655.95-10.399zM181.847 190.652c-7.67 6.448-19.698 11.128-31.304 4.905 1.834-1.172 3.728-2.379 5.66-3.628 11.655-7.489 21.922-2.478 25.644-1.277"/><path fill="#699CFF" d="M195.585 111.349c7.836 65.252-10.786 77.094-12.859 78.893-.601.521-.844.483-1.751.249l-.016.009c-3.841-1.018-13.1-6.06-24.756 1.428-1.932 1.249-3.827 2.456-5.661 3.628-11.89 7.541-21.492 12.855-28.409 9.771-5.868-2.994-11.158-5.584-15.914-7.809-35.303-16.458-42.4-13.454-43.028-13.094.73-.397 7.422-4.107 16.433-10.631.03-.017.061-.035.068-.059 12.045-8.729 28.175-22.485 39.769-40.18 7.893-12.033 15.615-42.537 30.514-48.522 30.619-11.423 44.339 13.044 45.61 26.317"/><path fill="#fff" d="M161.728 110.204c.951-2.51.858-4.871-.207-5.274-1.064-.404-2.698 1.304-3.649 3.814-.95 2.51-.857 4.871.207 5.274 1.065.404 2.699-1.304 3.649-3.814M181.224 113.406c.674-2.598.327-4.935-.776-5.221s-2.541 1.589-3.215 4.186-.326 4.936.776 5.222c1.102.285 2.542-1.589 3.215-4.187M169.357 122.945a.7.7 0 0 1-.683-.552c-.125-.565-.68-2.237-1.561-2.485-.88-.249-2.607.716-3.306 1.222a.7.7 0 1 1-.821-1.134c.276-.199 2.742-1.934 4.507-1.436 1.842.52 2.482 3.228 2.548 3.535a.695.695 0 0 1-.382.781.7.7 0 0 1-.302.069"/></svg>